<svg xmlns="http://www.w3.org/2000/svg" width="600" height="400" font-family="sans-serif" font-size="12">
<rect x="0" y="0" width="600" height="400" fill="#ffffff"/>
<line x1="60" y1="340.00" x2="580" y2="340.00" stroke="#cccccc" stroke-width="1" stroke-dasharray="4,4"/>
<text x="52" y="344.00" text-anchor="end" fill="#000000">-0.0919</text>
<line x1="60" y1="270.00" x2="580" y2="270.00" stroke="#cccccc" stroke-width="1" stroke-dasharray="4,4"/>
<text x="52" y="274.00" text-anchor="end" fill="#000000">0.449</text>
<line x1="60" y1="200.00" x2="580" y2="200.00" stroke="#cccccc" stroke-width="1" stroke-dasharray="4,4"/>
<text x="52" y="204.00" text-anchor="end" fill="#000000">0.991</text>
<line x1="60" y1="130.00" x2="580" y2="130.00" stroke="#cccccc" stroke-width="1" stroke-dasharray="4,4"/>
<text x="52" y="134.00" text-anchor="end" fill="#000000">1.53</text>
<line x1="60" y1="60.00" x2="580" y2="60.00" stroke="#cccccc" stroke-width="1" stroke-dasharray="4,4"/>
<text x="52" y="64.00" text-anchor="end" fill="#000000">2.07</text>
<line x1="60" y1="60" x2="60" y2="340" stroke="#000000" stroke-width="1.5"/>
<line x1="60" y1="340.00" x2="580" y2="340.00" stroke="#000000" stroke-width="1.5"/>
<line x1="60.00" y1="340.00" x2="60.00" y2="345.00" stroke="#000000" stroke-width="1.5"/>
<text x="60.00" y="360.00" text-anchor="middle" fill="#000000">16</text>
<line x1="94.67" y1="340.00" x2="94.67" y2="345.00" stroke="#000000" stroke-width="1.5"/>
<text x="94.67" y="360.00" text-anchor="middle" fill="#000000">32</text>
<line x1="164.00" y1="340.00" x2="164.00" y2="345.00" stroke="#000000" stroke-width="1.5"/>
<text x="164.00" y="360.00" text-anchor="middle" fill="#000000">64</text>
<line x1="302.67" y1="340.00" x2="302.67" y2="345.00" stroke="#000000" stroke-width="1.5"/>
<text x="302.67" y="360.00" text-anchor="middle" fill="#000000">128</text>
<line x1="580.00" y1="340.00" x2="580.00" y2="345.00" stroke="#000000" stroke-width="1.5"/>
<text x="580.00" y="360.00" text-anchor="middle" fill="#000000">256</text>
<polygon points="60.00,72.73 94.67,78.36 164.00,135.79 302.67,167.07 580.00,140.29 580.00,174.83 302.67,171.85 164.00,160.11 94.67,122.17 60.00,132.63" fill="#d62728" opacity="0.2" stroke="none"/>
<polyline points="60.00,102.68 94.67,100.26 164.00,147.95 302.67,169.46 580.00,157.56" fill="none" stroke="#d62728" stroke-width="2"/>
<circle cx="60.00" cy="102.68" r="3" fill="#d62728" stroke="none"/>
<circle cx="94.67" cy="100.26" r="3" fill="#d62728" stroke="none"/>
<circle cx="164.00" cy="147.95" r="3" fill="#d62728" stroke="none"/>
<circle cx="302.67" cy="169.46" r="3" fill="#d62728" stroke="none"/>
<circle cx="580.00" cy="157.56" r="3" fill="#d62728" stroke="none"/>
<polygon points="60.00,326.97 94.67,326.57 164.00,325.12 302.67,320.66 580.00,283.57 580.00,312.91 302.67,321.34 164.00,325.51 94.67,326.72 60.00,327.27" fill="#1f77b4" opacity="0.2" stroke="none"/>
<polyline points="60.00,327.12 94.67,326.65 164.00,325.31 302.67,321.00 580.00,298.24" fill="none" stroke="#1f77b4" stroke-width="2"/>
<circle cx="60.00" cy="327.12" r="3" fill="#1f77b4" stroke="none"/>
<circle cx="94.67" cy="326.65" r="3" fill="#1f77b4" stroke="none"/>
<circle cx="164.00" cy="325.31" r="3" fill="#1f77b4" stroke="none"/>
<circle cx="302.67" cy="321.00" r="3" fill="#1f77b4" stroke="none"/>
<circle cx="580.00" cy="298.24" r="3" fill="#1f77b4" stroke="none"/>
<rect x="460" y="70" width="12" height="12" fill="#d62728" opacity="0.6" stroke="#d62728" stroke-width="2"/>
<text x="478" y="80" fill="#000000">MLP</text>
<rect x="460" y="88" width="12" height="12" fill="#1f77b4" opacity="0.6" stroke="#1f77b4" stroke-width="2"/>
<text x="478" y="98" fill="#000000">SVM</text>
<text x="300.00" y="30" text-anchor="middle" font-size="14" font-weight="bold" fill="#000000">ENZYMES — Train Time vs. Dim (graph2vec) (n_seeds=3)</text>
<text x="320.00" y="380" text-anchor="middle" fill="#000000">Embedding dimension</text>
<text x="20" y="200.00" transform="rotate(-90 20,200.00)" text-anchor="middle" fill="#000000">Train time (s, mean ± std)</text>
</svg>