<svg xmlns="http://www.w3.org/2000/svg" width="600" height="400" font-family="sans-serif" font-size="12">
<rect x="0" y="0" width="600" height="400" fill="#ffffff"/>
<line x1="60" y1="340.00" x2="580" y2="340.00" stroke="#cccccc" stroke-width="1" stroke-dasharray="4,4"/>
<text x="52" y="344.00" text-anchor="end" fill="#000000">2.07</text>
<line x1="60" y1="270.00" x2="580" y2="270.00" stroke="#cccccc" stroke-width="1" stroke-dasharray="4,4"/>
<text x="52" y="274.00" text-anchor="end" fill="#000000">2.31</text>
<line x1="60" y1="200.00" x2="580" y2="200.00" stroke="#cccccc" stroke-width="1" stroke-dasharray="4,4"/>
<text x="52" y="204.00" text-anchor="end" fill="#000000">2.54</text>
<line x1="60" y1="130.00" x2="580" y2="130.00" stroke="#cccccc" stroke-width="1" stroke-dasharray="4,4"/>
<text x="52" y="134.00" text-anchor="end" fill="#000000">2.77</text>
<line x1="60" y1="60.00" x2="580" y2="60.00" stroke="#cccccc" stroke-width="1" stroke-dasharray="4,4"/>
<text x="52" y="64.00" text-anchor="end" fill="#000000">3.01</text>
<line x1="60" y1="60" x2="60" y2="340" stroke="#000000" stroke-width="1.5"/>
<line x1="60" y1="340.00" x2="580" y2="340.00" stroke="#000000" stroke-width="1.5"/>
<line x1="60.00" y1="340.00" x2="60.00" y2="345.00" stroke="#000000" stroke-width="1.5"/>
<text x="60.00" y="360.00" text-anchor="middle" fill="#000000">16</text>
<line x1="94.67" y1="340.00" x2="94.67" y2="345.00" stroke="#000000" stroke-width="1.5"/>
<text x="94.67" y="360.00" text-anchor="middle" fill="#000000">32</text>
<line x1="164.00" y1="340.00" x2="164.00" y2="345.00" stroke="#000000" stroke-width="1.5"/>
<text x="164.00" y="360.00" text-anchor="middle" fill="#000000">64</text>
<line x1="302.67" y1="340.00" x2="302.67" y2="345.00" stroke="#000000" stroke-width="1.5"/>
<text x="302.67" y="360.00" text-anchor="middle" fill="#000000">128</text>
<line x1="580.00" y1="340.00" x2="580.00" y2="345.00" stroke="#000000" stroke-width="1.5"/>
<text x="580.00" y="360.00" text-anchor="middle" fill="#000000">256</text>
<polygon points="60.00,238.29 94.67,276.62 164.00,294.97 302.67,258.21 580.00,72.73 580.00,306.02 302.67,297.39 164.00,312.47 94.67,308.68 60.00,327.27" fill="#2ca02c" opacity="0.2" stroke="none"/>
<polyline points="60.00,282.78 94.67,292.65 164.00,303.72 302.67,277.80 580.00,189.38" fill="none" stroke="#2ca02c" stroke-width="2"/>
<circle cx="60.00" cy="282.78" r="3" fill="#2ca02c" stroke="none"/>
<circle cx="94.67" cy="292.65" r="3" fill="#2ca02c" stroke="none"/>
<circle cx="164.00" cy="303.72" r="3" fill="#2ca02c" stroke="none"/>
<circle cx="302.67" cy="277.80" r="3" fill="#2ca02c" stroke="none"/>
<circle cx="580.00" cy="189.38" r="3" fill="#2ca02c" stroke="none"/>
<rect x="460" y="70" width="12" height="12" fill="#2ca02c" opacity="0.6" stroke="#2ca02c" stroke-width="2"/>
<text x="478" y="80" fill="#000000">Embedding gen time</text>
<text x="300.00" y="30" text-anchor="middle" font-size="14" font-weight="bold" fill="#000000">IMDB-MULTI — Embedding Gen Time vs. Dim (graph2vec) (n_seeds=3)</text>
<text x="320.00" y="380" text-anchor="middle" fill="#000000">Embedding dimension</text>
<text x="20" y="200.00" transform="rotate(-90 20,200.00)" text-anchor="middle" fill="#000000">Generation time (s, mean ± std)</text>
</svg>