<svg xmlns="http://www.w3.org/2000/svg" width="600" height="400" font-family="sans-serif" font-size="12">
<rect x="0" y="0" width="600" height="400" fill="#ffffff"/>
<line x1="60" y1="340.00" x2="580" y2="340.00" stroke="#cccccc" stroke-width="1" stroke-dasharray="4,4"/>
<text x="52" y="344.00" text-anchor="end" fill="#000000">0.353</text>
<line x1="60" y1="270.00" x2="580" y2="270.00" stroke="#cccccc" stroke-width="1" stroke-dasharray="4,4"/>
<text x="52" y="274.00" text-anchor="end" fill="#000000">0.397</text>
<line x1="60" y1="200.00" x2="580" y2="200.00" stroke="#cccccc" stroke-width="1" stroke-dasharray="4,4"/>
<text x="52" y="204.00" text-anchor="end" fill="#000000">0.44</text>
<line x1="60" y1="130.00" x2="580" y2="130.00" stroke="#cccccc" stroke-width="1" stroke-dasharray="4,4"/>
<text x="52" y="134.00" text-anchor="end" fill="#000000">0.483</text>
<line x1="60" y1="60.00" x2="580" y2="60.00" stroke="#cccccc" stroke-width="1" stroke-dasharray="4,4"/>
<text x="52" y="64.00" text-anchor="end" fill="#000000">0.526</text>
<line x1="60" y1="60" x2="60" y2="340" stroke="#000000" stroke-width="1.5"/>
<line x1="60" y1="340.00" x2="580" y2="340.00" stroke="#000000" stroke-width="1.5"/>
<line x1="60.00" y1="340.00" x2="60.00" y2="345.00" stroke="#000000" stroke-width="1.5"/>
<text x="60.00" y="360.00" text-anchor="middle" fill="#000000">16</text>
<line x1="94.67" y1="340.00" x2="94.67" y2="345.00" stroke="#000000" stroke-width="1.5"/>
<text x="94.67" y="360.00" text-anchor="middle" fill="#000000">32</text>
<line x1="164.00" y1="340.00" x2="164.00" y2="345.00" stroke="#000000" stroke-width="1.5"/>
<text x="164.00" y="360.00" text-anchor="middle" fill="#000000">64</text>
<line x1="302.67" y1="340.00" x2="302.67" y2="345.00" stroke="#000000" stroke-width="1.5"/>
<text x="302.67" y="360.00" text-anchor="middle" fill="#000000">128</text>
<line x1="580.00" y1="340.00" x2="580.00" y2="345.00" stroke="#000000" stroke-width="1.5"/>
<text x="580.00" y="360.00" text-anchor="middle" fill="#000000">256</text>
<polygon points="60.00,72.73 94.67,89.98 164.00,136.45 302.67,159.60 580.00,183.22 580.00,301.15 302.67,187.89 164.00,159.71 94.67,171.63 60.00,153.37" fill="#d62728" opacity="0.2" stroke="none"/>
<polyline points="60.00,113.05 94.67,130.81 164.00,148.08 302.67,173.74 580.00,242.18" fill="none" stroke="#d62728" stroke-width="2"/>
<circle cx="60.00" cy="113.05" r="3" fill="#d62728" stroke="none"/>
<circle cx="94.67" cy="130.81" r="3" fill="#d62728" stroke="none"/>
<circle cx="164.00" cy="148.08" r="3" fill="#d62728" stroke="none"/>
<circle cx="302.67" cy="173.74" r="3" fill="#d62728" stroke="none"/>
<circle cx="580.00" cy="242.18" r="3" fill="#d62728" stroke="none"/>
<polygon points="60.00,148.24 94.67,156.70 164.00,119.37 302.67,100.33 580.00,245.89 580.00,327.27 302.67,194.21 164.00,181.99 94.67,174.22 60.00,153.77" fill="#1f77b4" opacity="0.2" stroke="none"/>
<polyline points="60.00,151.00 94.67,165.46 164.00,150.68 302.67,147.27 580.00,286.58" fill="none" stroke="#1f77b4" stroke-width="2"/>
<circle cx="60.00" cy="151.00" r="3" fill="#1f77b4" stroke="none"/>
<circle cx="94.67" cy="165.46" r="3" fill="#1f77b4" stroke="none"/>
<circle cx="164.00" cy="150.68" r="3" fill="#1f77b4" stroke="none"/>
<circle cx="302.67" cy="147.27" r="3" fill="#1f77b4" stroke="none"/>
<circle cx="580.00" cy="286.58" r="3" fill="#1f77b4" stroke="none"/>
<rect x="460" y="70" width="12" height="12" fill="#d62728" opacity="0.6" stroke="#d62728" stroke-width="2"/>
<text x="478" y="80" fill="#000000">MLP</text>
<rect x="460" y="88" width="12" height="12" fill="#1f77b4" opacity="0.6" stroke="#1f77b4" stroke-width="2"/>
<text x="478" y="98" fill="#000000">SVM</text>
<text x="300.00" y="30" text-anchor="middle" font-size="14" font-weight="bold" fill="#000000">IMDB-MULTI — F1 vs. Dim (netlsd) (n_seeds=3)</text>
<text x="320.00" y="380" text-anchor="middle" fill="#000000">Embedding dimension</text>
<text x="20" y="200.00" transform="rotate(-90 20,200.00)" text-anchor="middle" fill="#000000">Macro-F1 (mean ± std)</text>
</svg>