<svg xmlns="http://www.w3.org/2000/svg" width="600" height="400" font-family="sans-serif" font-size="12">
<rect x="0" y="0" width="600" height="400" fill="#ffffff"/>
<line x1="60" y1="340.00" x2="580" y2="340.00" stroke="#cccccc" stroke-width="1" stroke-dasharray="4,4"/>
<text x="52" y="344.00" text-anchor="end" fill="#000000">-0.00103</text>
<line x1="60" y1="270.00" x2="580" y2="270.00" stroke="#cccccc" stroke-width="1" stroke-dasharray="4,4"/>
<text x="52" y="274.00" text-anchor="end" fill="#000000">0.00202</text>
<line x1="60" y1="200.00" x2="580" y2="200.00" stroke="#cccccc" stroke-width="1" stroke-dasharray="4,4"/>
<text x="52" y="204.00" text-anchor="end" fill="#000000">0.00507</text>
<line x1="60" y1="130.00" x2="580" y2="130.00" stroke="#cccccc" stroke-width="1" stroke-dasharray="4,4"/>
<text x="52" y="134.00" text-anchor="end" fill="#000000">0.00811</text>
<line x1="60" y1="60.00" x2="580" y2="60.00" stroke="#cccccc" stroke-width="1" stroke-dasharray="4,4"/>
<text x="52" y="64.00" text-anchor="end" fill="#000000">0.0112</text>
<line x1="60" y1="60" x2="60" y2="340" stroke="#000000" stroke-width="1.5"/>
<line x1="60" y1="340.00" x2="580" y2="340.00" stroke="#000000" stroke-width="1.5"/>
<line x1="60.00" y1="340.00" x2="60.00" y2="345.00" stroke="#000000" stroke-width="1.5"/>
<text x="60.00" y="360.00" text-anchor="middle" fill="#000000">16</text>
<line x1="94.67" y1="340.00" x2="94.67" y2="345.00" stroke="#000000" stroke-width="1.5"/>
<text x="94.67" y="360.00" text-anchor="middle" fill="#000000">32</text>
<line x1="164.00" y1="340.00" x2="164.00" y2="345.00" stroke="#000000" stroke-width="1.5"/>
<text x="164.00" y="360.00" text-anchor="middle" fill="#000000">64</text>
<line x1="302.67" y1="340.00" x2="302.67" y2="345.00" stroke="#000000" stroke-width="1.5"/>
<text x="302.67" y="360.00" text-anchor="middle" fill="#000000">128</text>
<line x1="580.00" y1="340.00" x2="580.00" y2="345.00" stroke="#000000" stroke-width="1.5"/>
<text x="580.00" y="360.00" text-anchor="middle" fill="#000000">256</text>
<polygon points="60.00,154.37 94.67,72.73 164.00,169.39 302.67,265.78 580.00,295.14 580.00,327.27 302.67,321.35 164.00,322.59 94.67,241.23 60.00,276.20" fill="#1f77b4" opacity="0.2" stroke="none"/>
<polyline points="60.00,215.28 94.67,156.98 164.00,245.99 302.67,293.57 580.00,311.20" fill="none" stroke="#1f77b4" stroke-width="2"/>
<circle cx="60.00" cy="215.28" r="3" fill="#1f77b4" stroke="none"/>
<circle cx="94.67" cy="156.98" r="3" fill="#1f77b4" stroke="none"/>
<circle cx="164.00" cy="245.99" r="3" fill="#1f77b4" stroke="none"/>
<circle cx="302.67" cy="293.57" r="3" fill="#1f77b4" stroke="none"/>
<circle cx="580.00" cy="311.20" r="3" fill="#1f77b4" stroke="none"/>
<polygon points="60.00,316.31 94.67,308.53 164.00,314.13 302.67,314.66 580.00,315.09 580.00,316.65 302.67,316.67 164.00,315.98 94.67,312.27 60.00,316.36" fill="#d62728" opacity="0.2" stroke="none"/>
<polyline points="60.00,316.34 94.67,310.40 164.00,315.05 302.67,315.66 580.00,315.87" fill="none" stroke="#d62728" stroke-width="2"/>
<circle cx="60.00" cy="316.34" r="3" fill="#d62728" stroke="none"/>
<circle cx="94.67" cy="310.40" r="3" fill="#d62728" stroke="none"/>
<circle cx="164.00" cy="315.05" r="3" fill="#d62728" stroke="none"/>
<circle cx="302.67" cy="315.66" r="3" fill="#d62728" stroke="none"/>
<circle cx="580.00" cy="315.87" r="3" fill="#d62728" stroke="none"/>
<rect x="460" y="70" width="12" height="12" fill="#1f77b4" opacity="0.6" stroke="#1f77b4" stroke-width="2"/>
<text x="478" y="80" fill="#000000">KMeans</text>
<rect x="460" y="88" width="12" height="12" fill="#d62728" opacity="0.6" stroke="#d62728" stroke-width="2"/>
<text x="478" y="98" fill="#000000">Spectral</text>
<text x="300.00" y="30" text-anchor="middle" font-size="14" font-weight="bold" fill="#000000">ENZYMES — ARI vs. Dim (graph2vec) (n_runs=3)</text>
<text x="320.00" y="380" text-anchor="middle" fill="#000000">Embedding dimension</text>
<text x="20" y="200.00" transform="rotate(-90 20,200.00)" text-anchor="middle" fill="#000000">ARI (mean ± std)</text>
</svg>