<svg xmlns="http://www.w3.org/2000/svg" width="600" height="400" font-family="sans-serif" font-size="12">
<rect x="0" y="0" width="600" height="400" fill="#ffffff"/>
<line x1="60" y1="340.00" x2="580" y2="340.00" stroke="#cccccc" stroke-width="1" stroke-dasharray="4,4"/>
<text x="52" y="344.00" text-anchor="end" fill="#000000">-0.0573</text>
<line x1="60" y1="270.00" x2="580" y2="270.00" stroke="#cccccc" stroke-width="1" stroke-dasharray="4,4"/>
<text x="52" y="274.00" text-anchor="end" fill="#000000">0.161</text>
<line x1="60" y1="200.00" x2="580" y2="200.00" stroke="#cccccc" stroke-width="1" stroke-dasharray="4,4"/>
<text x="52" y="204.00" text-anchor="end" fill="#000000">0.38</text>
<line x1="60" y1="130.00" x2="580" y2="130.00" stroke="#cccccc" stroke-width="1" stroke-dasharray="4,4"/>
<text x="52" y="134.00" text-anchor="end" fill="#000000">0.599</text>
<line x1="60" y1="60.00" x2="580" y2="60.00" stroke="#cccccc" stroke-width="1" stroke-dasharray="4,4"/>
<text x="52" y="64.00" text-anchor="end" fill="#000000">0.818</text>
<line x1="60" y1="60" x2="60" y2="340" stroke="#000000" stroke-width="1.5"/>
<line x1="60" y1="340.00" x2="580" y2="340.00" stroke="#000000" stroke-width="1.5"/>
<line x1="60.00" y1="340.00" x2="60.00" y2="345.00" stroke="#000000" stroke-width="1.5"/>
<text x="60.00" y="360.00" text-anchor="middle" fill="#000000">16</text>
<line x1="94.67" y1="340.00" x2="94.67" y2="345.00" stroke="#000000" stroke-width="1.5"/>
<text x="94.67" y="360.00" text-anchor="middle" fill="#000000">32</text>
<line x1="164.00" y1="340.00" x2="164.00" y2="345.00" stroke="#000000" stroke-width="1.5"/>
<text x="164.00" y="360.00" text-anchor="middle" fill="#000000">64</text>
<line x1="302.67" y1="340.00" x2="302.67" y2="345.00" stroke="#000000" stroke-width="1.5"/>
<text x="302.67" y="360.00" text-anchor="middle" fill="#000000">128</text>
<line x1="580.00" y1="340.00" x2="580.00" y2="345.00" stroke="#000000" stroke-width="1.5"/>
<text x="580.00" y="360.00" text-anchor="middle" fill="#000000">256</text>
<polygon points="60.00,296.71 94.67,309.15 164.00,316.87 302.67,319.95 580.00,160.84 580.00,160.84 302.67,327.27 164.00,325.66 94.67,317.51 60.00,301.25" fill="#1f77b4" opacity="0.2" stroke="none"/>
<polyline points="60.00,298.98 94.67,313.33 164.00,321.26 302.67,323.61 580.00,160.84" fill="none" stroke="#1f77b4" stroke-width="2"/>
<circle cx="60.00" cy="298.98" r="3" fill="#1f77b4" stroke="none"/>
<circle cx="94.67" cy="313.33" r="3" fill="#1f77b4" stroke="none"/>
<circle cx="164.00" cy="321.26" r="3" fill="#1f77b4" stroke="none"/>
<circle cx="302.67" cy="323.61" r="3" fill="#1f77b4" stroke="none"/>
<circle cx="580.00" cy="160.84" r="3" fill="#1f77b4" stroke="none"/>
<polygon points="60.00,72.73 94.67,101.83 164.00,137.37 302.67,191.72 580.00,152.83 580.00,153.68 302.67,196.36 164.00,138.53 94.67,101.95 60.00,72.73" fill="#d62728" opacity="0.2" stroke="none"/>
<polyline points="60.00,72.73 94.67,101.89 164.00,137.95 302.67,194.04 580.00,153.26" fill="none" stroke="#d62728" stroke-width="2"/>
<circle cx="60.00" cy="72.73" r="3" fill="#d62728" stroke="none"/>
<circle cx="94.67" cy="101.89" r="3" fill="#d62728" stroke="none"/>
<circle cx="164.00" cy="137.95" r="3" fill="#d62728" stroke="none"/>
<circle cx="302.67" cy="194.04" r="3" fill="#d62728" stroke="none"/>
<circle cx="580.00" cy="153.26" r="3" fill="#d62728" stroke="none"/>
<rect x="460" y="70" width="12" height="12" fill="#1f77b4" opacity="0.6" stroke="#1f77b4" stroke-width="2"/>
<text x="478" y="80" fill="#000000">KMeans</text>
<rect x="460" y="88" width="12" height="12" fill="#d62728" opacity="0.6" stroke="#d62728" stroke-width="2"/>
<text x="478" y="98" fill="#000000">Spectral</text>
<text x="300.00" y="30" text-anchor="middle" font-size="14" font-weight="bold" fill="#000000">ENZYMES — Silhouette vs. Dim (netlsd) (n_runs=3)</text>
<text x="320.00" y="380" text-anchor="middle" fill="#000000">Embedding dimension</text>
<text x="20" y="200.00" transform="rotate(-90 20,200.00)" text-anchor="middle" fill="#000000">Silhouette (mean ± std)</text>
</svg>