<svg xmlns="http://www.w3.org/2000/svg" width="600" height="400" font-family="sans-serif" font-size="12">
<rect x="0" y="0" width="600" height="400" fill="#ffffff"/>
<line x1="60" y1="340.00" x2="580" y2="340.00" stroke="#cccccc" stroke-width="1" stroke-dasharray="4,4"/>
<text x="52" y="344.00" text-anchor="end" fill="#000000">0.242</text>
<line x1="60" y1="270.00" x2="580" y2="270.00" stroke="#cccccc" stroke-width="1" stroke-dasharray="4,4"/>
<text x="52" y="274.00" text-anchor="end" fill="#000000">0.394</text>
<line x1="60" y1="200.00" x2="580" y2="200.00" stroke="#cccccc" stroke-width="1" stroke-dasharray="4,4"/>
<text x="52" y="204.00" text-anchor="end" fill="#000000">0.545</text>
<line x1="60" y1="130.00" x2="580" y2="130.00" stroke="#cccccc" stroke-width="1" stroke-dasharray="4,4"/>
<text x="52" y="134.00" text-anchor="end" fill="#000000">0.697</text>
<line x1="60" y1="60.00" x2="580" y2="60.00" stroke="#cccccc" stroke-width="1" stroke-dasharray="4,4"/>
<text x="52" y="64.00" text-anchor="end" fill="#000000">0.848</text>
<line x1="60" y1="60" x2="60" y2="340" stroke="#000000" stroke-width="1.5"/>
<line x1="60" y1="340.00" x2="580" y2="340.00" stroke="#000000" stroke-width="1.5"/>
<line x1="60.00" y1="340.00" x2="60.00" y2="345.00" stroke="#000000" stroke-width="1.5"/>
<text x="60.00" y="360.00" text-anchor="middle" fill="#000000">16</text>
<line x1="94.67" y1="340.00" x2="94.67" y2="345.00" stroke="#000000" stroke-width="1.5"/>
<text x="94.67" y="360.00" text-anchor="middle" fill="#000000">32</text>
<line x1="164.00" y1="340.00" x2="164.00" y2="345.00" stroke="#000000" stroke-width="1.5"/>
<text x="164.00" y="360.00" text-anchor="middle" fill="#000000">64</text>
<line x1="302.67" y1="340.00" x2="302.67" y2="345.00" stroke="#000000" stroke-width="1.5"/>
<text x="302.67" y="360.00" text-anchor="middle" fill="#000000">128</text>
<line x1="580.00" y1="340.00" x2="580.00" y2="345.00" stroke="#000000" stroke-width="1.5"/>
<text x="580.00" y="360.00" text-anchor="middle" fill="#000000">256</text>
<polygon points="60.00,234.66 94.67,240.56 164.00,292.29 302.67,188.70 580.00,251.27 580.00,253.82 302.67,270.87 164.00,294.91 94.67,245.30 60.00,327.27" fill="#1f77b4" opacity="0.2" stroke="none"/>
<polyline points="60.00,280.97 94.67,242.93 164.00,293.60 302.67,229.79 580.00,252.55" fill="none" stroke="#1f77b4" stroke-width="2"/>
<circle cx="60.00" cy="280.97" r="3" fill="#1f77b4" stroke="none"/>
<circle cx="94.67" cy="242.93" r="3" fill="#1f77b4" stroke="none"/>
<circle cx="164.00" cy="293.60" r="3" fill="#1f77b4" stroke="none"/>
<circle cx="302.67" cy="229.79" r="3" fill="#1f77b4" stroke="none"/>
<circle cx="580.00" cy="252.55" r="3" fill="#1f77b4" stroke="none"/>
<polygon points="60.00,72.73 94.67,77.66 164.00,100.20 302.67,155.25 580.00,166.58 580.00,184.85 302.67,157.95 164.00,120.59 94.67,91.37 60.00,93.69" fill="#d62728" opacity="0.2" stroke="none"/>
<polyline points="60.00,83.21 94.67,84.51 164.00,110.40 302.67,156.60 580.00,175.72" fill="none" stroke="#d62728" stroke-width="2"/>
<circle cx="60.00" cy="83.21" r="3" fill="#d62728" stroke="none"/>
<circle cx="94.67" cy="84.51" r="3" fill="#d62728" stroke="none"/>
<circle cx="164.00" cy="110.40" r="3" fill="#d62728" stroke="none"/>
<circle cx="302.67" cy="156.60" r="3" fill="#d62728" stroke="none"/>
<circle cx="580.00" cy="175.72" r="3" fill="#d62728" stroke="none"/>
<rect x="460" y="70" width="12" height="12" fill="#1f77b4" opacity="0.6" stroke="#1f77b4" stroke-width="2"/>
<text x="478" y="80" fill="#000000">KMeans</text>
<rect x="460" y="88" width="12" height="12" fill="#d62728" opacity="0.6" stroke="#d62728" stroke-width="2"/>
<text x="478" y="98" fill="#000000">Spectral</text>
<text x="300.00" y="30" text-anchor="middle" font-size="14" font-weight="bold" fill="#000000">IMDB-MULTI — Silhouette vs. Dim (graph2vec) (n_runs=3)</text>
<text x="320.00" y="380" text-anchor="middle" fill="#000000">Embedding dimension</text>
<text x="20" y="200.00" transform="rotate(-90 20,200.00)" text-anchor="middle" fill="#000000">Silhouette (mean ± std)</text>
</svg>